<svg width="192" height="192" viewBox="0 0 192 192" fill="none" xmlns="http://www.w3.org/2000/svg">
<g clip-path="url(#clip0)">
<path d="M187.826 58.4346H4.17404C1.87004 58.4346 0 60.3046 0 62.6086C0 64.9126 1.87004 66.7827 4.17404 66.7827H187.826C190.13 66.7827 192 64.9126 192 62.6086C192 60.3046 190.13 58.4346 187.826 58.4346Z" fill="#D7ECFF"/>
<path d="M187.826 125.217H4.17404C1.87004 125.217 0 127.087 0 129.391C0 131.695 1.87004 133.565 4.17404 133.565H187.826C190.13 133.565 192 131.695 192 129.391C192 127.087 190.13 125.217 187.826 125.217Z" fill="#D7ECFF"/>
<path d="M62.6086 0C60.3046 0 58.4346 1.87004 58.4346 4.17404V187.826C58.4346 190.13 60.3046 192 62.6086 192C64.9126 192 66.7827 190.13 66.7827 187.826V4.17404C66.7827 1.87004 64.9126 0 62.6086 0Z" fill="#D7ECFF"/>
<path d="M129.391 0C127.087 0 125.217 1.87004 125.217 4.17404V187.826C125.217 190.13 127.087 192 129.391 192C131.695 192 133.565 190.13 133.565 187.826V4.17404C133.565 1.87004 131.695 0 129.391 0Z" fill="#D7ECFF"/>
</g>
<defs>
<clipPath id="clip0">
<rect width="192" height="192" fill="white"/>
</clipPath>
</defs>
</svg>
